<svg width="176" height="44" viewBox="0 0 176 44" fill="none" xmlns="http://www.w3.org/2000/svg">
<rect x="3.6665" y="3.66663" width="36.6667" height="36.6667" rx="10.4762" fill="url(#paint0_linear_1759_51855)"/>
<path d="M23.5127 20.1615C23.031 19.3273 21.9644 19.0415 21.1302 19.5231C20.296 20.0047 20.0102 21.0714 20.4918 21.9056L24.4544 30.0784C24.936 30.9126 26.0027 31.1984 26.8368 30.7168C27.671 30.2352 27.9568 29.1685 27.4752 28.3344L23.5127 20.1615Z" fill="white"/>
<path d="M23.5099 21.9086C23.9915 21.0744 23.7057 20.0077 22.8715 19.5261C22.0373 19.0445 20.9707 19.3303 20.489 20.1645L16.5265 28.3373C16.0449 29.1715 16.3307 30.2382 17.1649 30.7198C17.999 31.2014 19.0657 30.9156 19.5473 30.0814L23.5099 21.9086Z" fill="white"/>
<path d="M19.6199 15.2683C19.6199 16.6131 20.7101 17.7032 22.0549 17.7032C23.3997 17.7032 24.4899 16.6131 24.4899 15.2683C24.4899 13.9235 23.3997 12.8333 22.0549 12.8333C20.7101 12.8333 19.6199 13.9235 19.6199 15.2683Z" fill="white"/>
<path opacity="0.75" d="M28.3444 17.269C28.3444 18.2322 29.1252 19.0131 30.0884 19.0131C31.0517 19.0131 31.8325 18.2322 31.8325 17.269C31.8325 16.3057 31.0517 15.5249 30.0884 15.5249C29.1252 15.5249 28.3444 16.3057 28.3444 17.269Z" fill="white"/>
<path opacity="0.75" d="M15.6545 17.269C15.6545 18.2322 14.8737 19.0131 13.9105 19.0131C12.9472 19.0131 12.1664 18.2322 12.1664 17.269C12.1664 16.3057 12.9472 15.5249 13.9105 15.5249C14.8737 15.5249 15.6545 16.3057 15.6545 17.269Z" fill="white"/>
<g opacity="0.75">
<path opacity="0.75" d="M31.5991 23.2182C32.0807 22.3841 31.7949 21.3174 30.9607 20.8358C30.1266 20.3542 29.0599 20.64 28.5783 21.4742L24.6157 28.3375C24.1341 29.1717 24.4199 30.2384 25.2541 30.72C26.0883 31.2016 27.1549 30.9158 27.6366 30.0816L31.5991 23.2182Z" fill="white"/>
<path opacity="0.75" d="M12.4003 23.2179C11.9187 22.3837 12.2045 21.317 13.0387 20.8354C13.8728 20.3538 14.9395 20.6396 15.4211 21.4738L19.3837 28.3371C19.8653 29.1713 19.5795 30.238 18.7453 30.7196C17.9111 31.2012 16.8444 30.9154 16.3628 30.0812L12.4003 23.2179Z" fill="white"/>
<path opacity="0.75" d="M28.6046 23.2184C28.123 22.3842 28.4088 21.3175 29.243 20.8359C30.0772 20.3543 31.1438 20.6401 31.6254 21.4743L34.2065 25.5746C34.6881 26.4087 34.4023 27.4754 33.5681 27.957C32.7339 28.4386 31.6672 28.1528 31.1856 27.3186L28.6046 23.2184Z" fill="white"/>
<path opacity="0.75" d="M15.3952 23.2184C15.8768 22.3842 15.591 21.3175 14.7568 20.8359C13.9226 20.3543 12.8559 20.6401 12.3743 21.4743L9.7933 25.5746C9.31169 26.4087 9.5975 27.4754 10.4317 27.957C11.2659 28.4386 12.3325 28.1528 12.8141 27.3186L15.3952 23.2184Z" fill="white"/>
</g>
<rect x="3.6665" y="3.66663" width="36.6667" height="36.6667" rx="10.4762" fill="white"/>
<path d="M23.5127 20.1616C23.031 19.3274 21.9644 19.0416 21.1302 19.5232C20.296 20.0048 20.0102 21.0715 20.4918 21.9057L24.4544 30.0786C24.936 30.9128 26.0027 31.1986 26.8368 30.7169C27.671 30.2353 27.9568 29.1687 27.4752 28.3345L23.5127 20.1616Z" fill="url(#paint1_linear_1759_51855)"/>
<path d="M23.5098 21.9087C23.9914 21.0745 23.7056 20.0078 22.8714 19.5262C22.0372 19.0446 20.9705 19.3304 20.4889 20.1646L16.5264 28.3375C16.0447 29.1717 16.3306 30.2383 17.1647 30.7199C17.9989 31.2015 19.0656 30.9157 19.5472 30.0816L23.5098 21.9087Z" fill="url(#paint2_linear_1759_51855)"/>
<path d="M19.6198 15.2684C19.6198 16.6132 20.71 17.7034 22.0548 17.7034C23.3996 17.7034 24.4897 16.6132 24.4897 15.2684C24.4897 13.9236 23.3996 12.8334 22.0548 12.8334C20.71 12.8334 19.6198 13.9236 19.6198 15.2684Z" fill="url(#paint3_linear_1759_51855)"/>
<g opacity="0.5">
<path d="M31.4519 23.2184C31.9335 22.3842 31.6477 21.3175 30.8135 20.8359C29.9793 20.3543 28.9127 20.6401 28.4311 21.4743L24.4685 28.3376C23.9869 29.1718 24.2727 30.2385 25.1069 30.7201C25.9411 31.2017 27.0077 30.9159 27.4893 30.0817L31.4519 23.2184Z" fill="#FA6432"/>
<path d="M28.4425 23.2185C27.9609 22.3843 28.2467 21.3177 29.0809 20.836C29.9151 20.3544 30.9817 20.6402 31.4633 21.4744L34.0443 25.5747C34.526 26.4089 34.2401 27.4755 33.406 27.9571C32.5718 28.4388 31.5051 28.153 31.0235 27.3188L28.4425 23.2185Z" fill="#FA6432"/>
</g>
<path opacity="0.5" d="M28.3444 17.269C28.3444 18.2322 29.1252 19.0131 30.0884 19.0131C31.0517 19.0131 31.8325 18.2322 31.8325 17.269C31.8325 16.3057 31.0517 15.5249 30.0884 15.5249C29.1252 15.5249 28.3444 16.3057 28.3444 17.269Z" fill="#FA6432"/>
<g opacity="0.5">
<path d="M12.5616 23.2184C12.08 22.3842 12.3658 21.3175 13.2 20.8359C14.0342 20.3543 15.1009 20.6401 15.5825 21.4743L19.545 28.3376C20.0267 29.1718 19.7409 30.2385 18.9067 30.7201C18.0725 31.2017 17.0058 30.9159 16.5242 30.0817L12.5616 23.2184Z" fill="#FA6432"/>
<path d="M15.5713 23.2185C16.0529 22.3843 15.7671 21.3177 14.9329 20.836C14.0987 20.3544 13.0321 20.6402 12.5505 21.4744L9.96945 25.5747C9.48783 26.4089 9.77365 27.4755 10.6078 27.9571C11.442 28.4388 12.5087 28.153 12.9903 27.3188L15.5713 23.2185Z" fill="#FA6432"/>
</g>
<path opacity="0.5" d="M15.6692 17.269C15.6692 18.2322 14.8883 19.0131 13.9251 19.0131C12.9619 19.0131 12.181 18.2322 12.181 17.269C12.181 16.3057 12.9619 15.5249 13.9251 15.5249C14.8883 15.5249 15.6692 16.3057 15.6692 17.269Z" fill="#FA6432"/>
<path d="M166.854 16.0823H171.672L166.012 20.6667L172.023 27.7538H170.666V27.7772L170.643 27.7538H167.789L163.486 22.6314L161.451 24.2921V27.7772H158.083V11.4043H161.451L161.381 19.7077C161.381 19.9728 161.334 20.2613 161.24 20.5731C161.162 20.8694 161.069 21.1345 160.96 21.3684L161.006 21.3918C161.116 21.1579 161.264 20.9162 161.451 20.6667C161.638 20.4172 161.841 20.2067 162.059 20.0352L166.854 16.0823Z" fill="white"/>
<path d="M146.959 18.9358C147.193 18.4057 147.481 17.9535 147.824 17.5792C148.167 17.1894 148.534 16.8697 148.924 16.6202C149.329 16.3707 149.742 16.1914 150.163 16.0823C150.6 15.9575 151.013 15.8951 151.403 15.8951C152.198 15.8951 152.884 16.0511 153.461 16.3629C154.054 16.6592 154.537 17.0958 154.911 17.6728C155.286 18.2497 155.559 18.9436 155.73 19.7545C155.902 20.5497 155.987 21.4463 155.987 22.4443V27.7772H152.666V22.4209C152.666 21.9063 152.604 21.4541 152.479 21.0643C152.354 20.6589 152.183 20.3236 151.964 20.0585C151.746 19.7935 151.481 19.5907 151.169 19.4504C150.857 19.3101 150.522 19.2399 150.163 19.2399C149.82 19.2399 149.446 19.3023 149.041 19.427C148.635 19.5362 148.253 19.7467 147.895 20.0585C147.551 20.3704 147.263 20.7992 147.029 21.345C146.795 21.8752 146.678 22.5613 146.678 23.4033V27.7772H143.333V16.0823H146.678V18.8657C146.678 19.1152 146.655 19.388 146.608 19.6843C146.577 19.965 146.538 20.2223 146.491 20.4562H146.538C146.585 20.2223 146.639 19.965 146.702 19.6843C146.764 19.388 146.85 19.1385 146.959 18.9358Z" fill="white"/>
<path d="M137.59 16.0823H141.239L135.532 29.4379C135.283 30.0928 134.979 30.623 134.62 31.0284C134.261 31.4494 133.879 31.7691 133.474 31.9874C133.068 32.2213 132.655 32.3772 132.234 32.4552C131.829 32.5488 131.462 32.5955 131.135 32.5955H127.603V30.1396H129.357C129.513 30.1396 129.724 30.124 129.989 30.0928C130.269 30.0616 130.55 29.9993 130.831 29.9057C131.111 29.8277 131.369 29.7108 131.603 29.5549C131.852 29.4145 132.024 29.2196 132.117 28.9701L132.562 27.6135L127.58 16.0823H131.228L134.059 22.842C134.183 23.0914 134.269 23.3721 134.316 23.684C134.378 23.9959 134.409 24.2843 134.409 24.5494H134.456C134.456 24.2843 134.48 23.9959 134.526 23.684C134.573 23.3721 134.651 23.0914 134.76 22.842L137.59 16.0823Z" fill="white"/>
<path d="M116.858 23.801C116.936 24.4403 117.256 24.9003 117.817 25.181C118.394 25.4461 119.166 25.5786 120.133 25.5786C121.131 25.5786 121.895 25.4461 122.425 25.181C122.955 24.9003 123.22 24.4949 123.22 23.9647C123.22 23.6684 122.986 23.4657 122.518 23.3566C122.066 23.2318 121.489 23.1305 120.788 23.0525C120.086 22.9745 119.322 22.8966 118.495 22.8186C117.685 22.7406 116.928 22.5925 116.227 22.3742C115.54 22.1403 114.964 21.8128 114.496 21.3918C114.028 20.9552 113.794 20.3627 113.794 19.6142C113.794 19.0528 113.911 18.5772 114.145 18.1874C114.394 17.782 114.706 17.4467 115.08 17.1816C115.455 16.901 115.876 16.6749 116.344 16.5033C116.827 16.3318 117.302 16.2071 117.77 16.1291C118.254 16.0511 118.706 15.9965 119.127 15.9654C119.548 15.9342 119.891 15.9186 120.156 15.9186C120.78 15.9186 121.435 15.981 122.121 16.1057C122.823 16.2304 123.47 16.4332 124.062 16.7138C124.655 16.9945 125.154 17.361 125.559 17.8132C125.98 18.2654 126.206 18.8111 126.237 19.4505L123.29 19.7779C123.212 19.2321 122.908 18.8501 122.378 18.6318C121.848 18.3979 121.084 18.281 120.086 18.281C119.135 18.281 118.402 18.3823 117.887 18.585C117.388 18.7877 117.139 19.1776 117.139 19.7545C117.139 20.0508 117.373 20.2613 117.84 20.386C118.308 20.4952 118.885 20.5888 119.571 20.6667C120.273 20.7291 121.029 20.7993 121.84 20.8772C122.667 20.9552 123.431 21.1111 124.132 21.345C124.834 21.5633 125.411 21.883 125.863 22.304C126.331 22.7094 126.565 23.2864 126.565 24.0349C126.565 24.6274 126.44 25.142 126.191 25.5786C125.957 25.9996 125.645 26.3505 125.255 26.6312C124.865 26.9118 124.421 27.1379 123.922 27.3095C123.438 27.481 122.955 27.6135 122.472 27.7071C121.988 27.8006 121.528 27.8552 121.092 27.8708C120.655 27.902 120.296 27.9176 120.016 27.9176C119.766 27.9176 119.431 27.8942 119.01 27.8474C118.605 27.8162 118.168 27.7539 117.7 27.6603C117.232 27.5667 116.757 27.4342 116.273 27.2627C115.806 27.0912 115.369 26.8728 114.964 26.6078C114.574 26.3271 114.254 25.9918 114.005 25.602C113.755 25.1966 113.615 24.7288 113.583 24.1986L116.858 23.801Z" fill="white"/>
<path d="M107.674 16.0823H112.492L106.832 20.6667L112.843 27.7538H111.486V27.7772L111.463 27.7538H108.61L104.306 22.6314L102.271 24.2921V27.7772H98.9027V11.4043H102.271L102.201 19.7077C102.201 19.9728 102.154 20.2613 102.06 20.5731C101.982 20.8694 101.889 21.1345 101.78 21.3684L101.826 21.3918C101.936 21.1579 102.084 20.9162 102.271 20.6667C102.458 20.4172 102.661 20.2067 102.879 20.0352L107.674 16.0823Z" fill="white"/>
<path d="M96.8037 18.7955H93.108C92.7806 18.7955 92.5155 18.8189 92.3128 18.8657C92.1101 18.9125 91.9463 19.006 91.8216 19.1464C91.7125 19.2711 91.6345 19.4582 91.5877 19.7077C91.5565 19.9572 91.5409 20.2847 91.5409 20.6901V27.7772H88.1962V19.427C88.1962 18.8501 88.2585 18.3589 88.3833 17.9535C88.508 17.5324 88.7029 17.1816 88.968 16.9009C89.2331 16.6202 89.5762 16.4175 89.9972 16.2928C90.4338 16.1524 90.9484 16.0823 91.5409 16.0823H96.8037V18.7955Z" fill="white"/>
<path d="M86.0946 21.9297C86.0946 22.9433 85.8997 23.8243 85.5099 24.5728C85.12 25.3212 84.5976 25.945 83.9427 26.444C83.3034 26.9429 82.5471 27.3172 81.6739 27.5667C80.8163 27.8006 79.9041 27.9175 78.9373 27.9175C77.9705 27.9175 77.0505 27.8006 76.1773 27.5667C75.3197 27.3172 74.5634 26.9429 73.9085 26.444C73.2535 25.945 72.7312 25.3212 72.3413 24.5728C71.9515 23.8243 71.7566 22.9433 71.7566 21.9297C71.7566 20.9161 71.9515 20.0351 72.3413 19.2867C72.7312 18.5382 73.2535 17.9144 73.9085 17.4155C74.5634 16.9165 75.3197 16.55 76.1773 16.3161C77.0505 16.0666 77.9705 15.9419 78.9373 15.9419C79.9041 15.9419 80.8163 16.0666 81.6739 16.3161C82.5471 16.5656 83.3034 16.9399 83.9427 17.4388C84.5976 17.9222 85.12 18.5382 85.5099 19.2867C85.8997 20.0351 86.0946 20.9161 86.0946 21.9297ZM82.7498 21.9297C82.7498 21.3995 82.6485 20.9317 82.4458 20.5263C82.2431 20.1209 81.9624 19.7778 81.6037 19.4972C81.2607 19.2009 80.8553 18.9826 80.3875 18.8422C79.9197 18.6863 79.4363 18.6083 78.9373 18.6083C78.4383 18.6083 77.9549 18.6863 77.4871 18.8422C77.0349 18.9826 76.6295 19.1931 76.2708 19.4738C75.9122 19.7544 75.6237 20.1053 75.4054 20.5263C75.2027 20.9473 75.1013 21.4151 75.1013 21.9297C75.1013 22.4599 75.1949 22.9355 75.382 23.3565C75.5847 23.7775 75.8576 24.1284 76.2007 24.409C76.5593 24.6741 76.9725 24.8768 77.4403 25.0172C77.9081 25.1575 78.4071 25.2277 78.9373 25.2277C79.4519 25.2277 79.9353 25.1575 80.3875 25.0172C80.8553 24.8768 81.2607 24.6663 81.6037 24.3856C81.9624 24.105 82.2431 23.7619 82.4458 23.3565C82.6485 22.9355 82.7498 22.4599 82.7498 21.9297Z" fill="white"/>
<path d="M67.4872 16.0823H71.0424L67.0194 27.7772H61.7099L59.3241 19.5674C59.2617 19.3179 59.2071 19.0372 59.1604 18.7253C59.1292 18.3979 59.1136 18.1016 59.1136 17.8365H59.0668C59.0668 18.1016 59.0512 18.3979 59.02 18.7253C58.9888 19.0372 58.9343 19.3179 58.8563 19.5674L56.5875 27.7772H51.2078L47.2081 16.0823H50.7868L53.5936 24.4559C53.6715 24.6742 53.7261 24.9159 53.7573 25.1809C53.8041 25.446 53.8275 25.6955 53.8275 25.9294H53.8743C53.8743 25.6955 53.882 25.446 53.8976 25.1809C53.9288 24.9003 53.9756 24.6508 54.038 24.4325L56.3536 16.0823H61.78L64.2126 24.4792C64.275 24.6976 64.3139 24.9159 64.3295 25.1342C64.3451 25.3369 64.3529 25.5162 64.3529 25.6721C64.3529 25.7657 64.3529 25.8593 64.3529 25.9528H64.3997C64.4153 25.7189 64.4387 25.4694 64.4699 25.2043C64.5167 24.9392 64.579 24.6976 64.657 24.4792L67.4872 16.0823Z" fill="white"/>
<defs>
<linearGradient id="paint0_linear_1759_51855" x1="0.765661" y1="-0.506816" x2="22.1196" y2="53.4534" gradientUnits="userSpaceOnUse">
<stop stop-color="#FF9A6E"/>
<stop offset="1" stop-color="#FF524D"/>
</linearGradient>
<linearGradient id="paint1_linear_1759_51855" x1="18.0548" y1="19.6497" x2="31.5358" y2="21.988" gradientUnits="userSpaceOnUse">
<stop stop-color="#FF9A6E"/>
<stop offset="1" stop-color="#FF524D"/>
</linearGradient>
<linearGradient id="paint2_linear_1759_51855" x1="21.7912" y1="17.2535" x2="26.5067" y2="30.0975" gradientUnits="userSpaceOnUse">
<stop stop-color="#FF9A6E"/>
<stop offset="1" stop-color="#FF524D"/>
</linearGradient>
<linearGradient id="paint3_linear_1759_51855" x1="24.875" y1="18.2577" x2="22.0389" y2="11.0909" gradientUnits="userSpaceOnUse">
<stop stop-color="#FF9A6E"/>
<stop offset="1" stop-color="#FF524D"/>
</linearGradient>
</defs>
</svg>
