<svg width="21" height="20" viewBox="0 0 21 20" fill="none" xmlns="http://www.w3.org/2000/svg">
<g clip-path="url(#clip0_1759_55322)">
<path d="M19.2695 0H2.22656C1.41016 0 0.75 0.644531 0.75 1.44141V18.5547C0.75 19.3516 1.41016 20 2.22656 20H19.2695C20.0859 20 20.75 19.3516 20.75 18.5586V1.44141C20.75 0.644531 20.0859 0 19.2695 0ZM6.68359 17.043H3.71484V7.49609H6.68359V17.043ZM5.19922 6.19531C4.24609 6.19531 3.47656 5.42578 3.47656 4.47656C3.47656 3.52734 4.24609 2.75781 5.19922 2.75781C6.14844 2.75781 6.91797 3.52734 6.91797 4.47656C6.91797 5.42188 6.14844 6.19531 5.19922 6.19531ZM17.793 17.043H14.8281V12.4023C14.8281 11.2969 14.8086 9.87109 13.2852 9.87109C11.7422 9.87109 11.5078 11.0781 11.5078 12.3242V17.043H8.54688V7.49609H11.3906V8.80078H11.4297C11.8242 8.05078 12.793 7.25781 14.2344 7.25781C17.2383 7.25781 17.793 9.23438 17.793 11.8047V17.043Z" fill="white"/>
</g>
<defs>
<clipPath id="clip0_1759_55322">
<rect width="20" height="20" fill="white" transform="translate(0.75)"/>
</clipPath>
</defs>
</svg>
