<svg width="25" height="24" viewBox="0 0 25 24" fill="none" xmlns="http://www.w3.org/2000/svg">
<path opacity="0.32" d="M15.9698 4.5H5.41014C4.46163 4.5 3.68994 5.06057 3.68994 5.75042C3.68994 6.43943 4.46163 7 5.41014 7H15.9697C16.9182 7 17.6899 6.43943 17.6899 5.75042C17.6899 5.06054 16.9183 4.5 15.9698 4.5Z" fill="white"/>
<path d="M19.9698 10.75H9.41014C8.46163 10.75 7.68994 11.3106 7.68994 12.0004C7.68994 12.6894 8.46163 13.25 9.41014 13.25H19.9697C20.9182 13.25 21.6899 12.6894 21.6899 12.0004C21.6899 11.3105 20.9183 10.75 19.9698 10.75Z" fill="white"/>
<path d="M15.9698 17H5.41014C4.46163 17 3.68994 17.5606 3.68994 18.2504C3.68994 18.9394 4.46163 19.5 5.41014 19.5H15.9697C16.9182 19.5 17.6899 18.9394 17.6899 18.2504C17.6899 17.5606 16.9183 17 15.9698 17Z" fill="white"/>
</svg>
