<svg width="228" height="44" viewBox="0 0 228 44" fill="none" xmlns="http://www.w3.org/2000/svg">
<rect x="19.667" y="3.66602" width="36.6667" height="36.6667" rx="10.4762" fill="url(#paint0_linear_27_39826)"/>
<path d="M39.5146 20.1597C39.033 19.3255 37.9663 19.0397 37.1321 19.5213C36.298 20.0029 36.0122 21.0696 36.4938 21.9037L40.4563 30.0766C40.9379 30.9108 42.0046 31.1966 42.8388 30.715C43.673 30.2334 43.9588 29.1667 43.4772 28.3325L39.5146 20.1597Z" fill="white"/>
<path d="M39.5111 21.9068C39.9927 21.0727 39.7069 20.006 38.8727 19.5244C38.0385 19.0428 36.9719 19.3286 36.4903 20.1628L32.5277 28.3356C32.0461 29.1698 32.3319 30.2365 33.1661 30.7181C34.0003 31.1997 35.0669 30.9139 35.5485 30.0797L39.5111 21.9068Z" fill="white"/>
<path d="M35.6213 15.2662C35.6213 16.611 36.7114 17.7012 38.0562 17.7012C39.401 17.7012 40.4912 16.611 40.4912 15.2662C40.4912 13.9214 39.401 12.8312 38.0562 12.8312C36.7114 12.8312 35.6213 13.9214 35.6213 15.2662Z" fill="white"/>
<path opacity="0.75" d="M44.3458 17.2676C44.3458 18.2309 45.1267 19.0117 46.0899 19.0117C47.0531 19.0117 47.834 18.2309 47.834 17.2676C47.834 16.3044 47.0531 15.5236 46.0899 15.5236C45.1267 15.5236 44.3458 16.3044 44.3458 17.2676Z" fill="white"/>
<path opacity="0.75" d="M31.6561 17.2676C31.6561 18.2309 30.8753 19.0117 29.9121 19.0117C28.9488 19.0117 28.168 18.2309 28.168 17.2676C28.168 16.3044 28.9488 15.5236 29.9121 15.5236C30.8753 15.5236 31.6561 16.3044 31.6561 17.2676Z" fill="white"/>
<g opacity="0.75">
<path opacity="0.75" d="M47.6 23.2154C48.0816 22.3813 47.7958 21.3146 46.9616 20.833C46.1274 20.3514 45.0607 20.6372 44.5791 21.4714L40.6166 28.3347C40.135 29.1689 40.4208 30.2356 41.255 30.7172C42.0891 31.1988 43.1558 30.913 43.6374 30.0788L47.6 23.2154Z" fill="white"/>
<path opacity="0.75" d="M28.401 23.2154C27.9194 22.3813 28.2052 21.3146 29.0394 20.833C29.8736 20.3514 30.9402 20.6372 31.4218 21.4714L35.3844 28.3347C35.866 29.1689 35.5802 30.2356 34.746 30.7172C33.9118 31.1988 32.8452 30.913 32.3636 30.0788L28.401 23.2154Z" fill="white"/>
<path opacity="0.75" d="M44.605 23.2162C44.1234 22.382 44.4092 21.3153 45.2433 20.8337C46.0775 20.3521 47.1442 20.6379 47.6258 21.4721L50.2068 25.5724C50.6884 26.4065 50.4026 27.4732 49.5684 27.9548C48.7343 28.4364 47.6676 28.1506 47.186 27.3164L44.605 23.2162Z" fill="white"/>
<path opacity="0.75" d="M31.396 23.2162C31.8776 22.382 31.5918 21.3153 30.7576 20.8337C29.9234 20.3521 28.8568 20.6379 28.3752 21.4721L25.7942 25.5724C25.3125 26.4065 25.5984 27.4732 26.4325 27.9548C27.2667 28.4364 28.3334 28.1506 28.815 27.3165L31.396 23.2162Z" fill="white"/>
</g>
<rect x="19.667" y="3.66602" width="36.6667" height="36.6667" rx="10.4762" fill="url(#paint1_linear_27_39826)"/>
<path d="M39.5136 20.1597C39.032 19.3255 37.9654 19.0397 37.1312 19.5213C36.297 20.0029 36.0112 21.0696 36.4928 21.9037L40.4553 30.0766C40.937 30.9108 42.0036 31.1966 42.8378 30.715C43.672 30.2334 43.9578 29.1667 43.4762 28.3325L39.5136 20.1597Z" fill="white"/>
<path d="M39.5101 21.9068C39.9917 21.0727 39.7059 20.006 38.8717 19.5244C38.0376 19.0428 36.9709 19.3286 36.4893 20.1628L32.5267 28.3356C32.0451 29.1698 32.3309 30.2365 33.1651 30.7181C33.9993 31.1997 35.066 30.9139 35.5476 30.0797L39.5101 21.9068Z" fill="white"/>
<path d="M35.6213 15.2662C35.6213 16.611 36.7114 17.7012 38.0562 17.7012C39.401 17.7012 40.4912 16.611 40.4912 15.2662C40.4912 13.9214 39.401 12.8312 38.0562 12.8312C36.7114 12.8312 35.6213 13.9214 35.6213 15.2662Z" fill="white"/>
<g opacity="0.5">
<path d="M44.4429 23.2181C43.9612 22.384 44.2471 21.3173 45.0812 20.8357C45.9154 20.3541 46.9821 20.6399 47.4637 21.4741L50.0447 25.5743C50.5263 26.4085 50.2405 27.4752 49.4063 27.9568C48.5722 28.4384 47.5055 28.1526 47.0239 27.3184L44.4429 23.2181Z" fill="white"/>
<path d="M47.4535 23.2174C47.9351 22.3832 47.6493 21.3165 46.8151 20.8349C45.9809 20.3533 44.9143 20.6391 44.4326 21.4733L40.4701 28.3367C39.9885 29.1708 40.2743 30.2375 41.1085 30.7191C41.9427 31.2007 43.0093 30.9149 43.4909 30.0807L47.4535 23.2174Z" fill="white"/>
</g>
<path opacity="0.5" d="M44.3448 17.2676C44.3448 18.2309 45.1257 19.0117 46.0889 19.0117C47.0522 19.0117 47.833 18.2309 47.833 17.2676C47.833 16.3044 47.0522 15.5236 46.0889 15.5236C45.1257 15.5236 44.3448 16.3044 44.3448 17.2676Z" fill="white"/>
<g opacity="0.5">
<path d="M31.5728 23.2181C32.0544 22.384 31.7686 21.3173 30.9344 20.8357C30.1002 20.3541 29.0335 20.6399 28.5519 21.4741L25.9709 25.5743C25.4893 26.4085 25.7751 27.4752 26.6093 27.9568C27.4435 28.4384 28.5101 28.1526 28.9918 27.3184L31.5728 23.2181Z" fill="white"/>
<path d="M28.5621 23.2174C28.0805 22.3832 28.3663 21.3165 29.2005 20.8349C30.0347 20.3533 31.1014 20.6391 31.583 21.4733L35.5455 28.3367C36.0272 29.1708 35.7413 30.2375 34.9072 30.7191C34.073 31.2007 33.0063 30.9149 32.5247 30.0807L28.5621 23.2174Z" fill="white"/>
</g>
<path opacity="0.5" d="M31.6698 17.2676C31.6698 18.2309 30.889 19.0117 29.9257 19.0117C28.9625 19.0117 28.1816 18.2309 28.1816 17.2676C28.1816 16.3044 28.9625 15.5236 29.9257 15.5236C30.889 15.5236 31.6698 16.3044 31.6698 17.2676Z" fill="white"/>
<path d="M182.855 16.0823H187.674L182.013 20.6667L188.024 27.7538H186.668V27.7772L186.644 27.7538H183.791L179.487 22.6314L177.452 24.2921V27.7772H174.084V11.4043H177.452L177.382 19.7077C177.382 19.9728 177.335 20.2613 177.242 20.5731C177.164 20.8694 177.07 21.1345 176.961 21.3684L177.008 21.3918C177.117 21.1579 177.265 20.9162 177.452 20.6667C177.639 20.4172 177.842 20.2067 178.06 20.0352L182.855 16.0823Z" fill="#0A0B1A"/>
<path d="M162.959 18.9352C163.193 18.405 163.482 17.9528 163.825 17.5786C164.168 17.1888 164.534 16.8691 164.924 16.6196C165.33 16.3701 165.743 16.1908 166.164 16.0817C166.6 15.9569 167.014 15.8945 167.404 15.8945C168.199 15.8945 168.885 16.0505 169.462 16.3623C170.054 16.6586 170.538 17.0952 170.912 17.6722C171.286 18.2491 171.559 18.943 171.731 19.7539C171.902 20.5491 171.988 21.4457 171.988 22.4437V27.7766H168.667V22.4203C168.667 21.9057 168.604 21.4535 168.479 21.0637C168.355 20.6583 168.183 20.323 167.965 20.0579C167.747 19.7928 167.481 19.5901 167.17 19.4498C166.858 19.3095 166.522 19.2393 166.164 19.2393C165.821 19.2393 165.447 19.3017 165.041 19.4264C164.636 19.5356 164.254 19.7461 163.895 20.0579C163.552 20.3698 163.263 20.7986 163.03 21.3444C162.796 21.8745 162.679 22.5607 162.679 23.4027V27.7766H159.334V16.0817H162.679V18.865C162.679 19.1145 162.655 19.3874 162.609 19.6837C162.577 19.9644 162.538 20.2217 162.492 20.4556H162.538C162.585 20.2217 162.64 19.9644 162.702 19.6837C162.765 19.3874 162.85 19.1379 162.959 18.9352Z" fill="#0A0B1A"/>
<path d="M153.591 16.082H157.24L151.533 29.4377C151.283 30.0926 150.979 30.6228 150.62 31.0282C150.262 31.4492 149.88 31.7689 149.474 31.9872C149.069 32.2211 148.656 32.377 148.235 32.455C147.829 32.5485 147.463 32.5953 147.135 32.5953H143.603V30.1394H145.358C145.514 30.1394 145.724 30.1238 145.989 30.0926C146.27 30.0614 146.551 29.999 146.831 29.9055C147.112 29.8275 147.369 29.7105 147.603 29.5546C147.853 29.4143 148.024 29.2194 148.118 28.9699L148.562 27.6133L143.58 16.082H147.229L150.059 22.8417C150.184 23.0912 150.27 23.3719 150.316 23.6837C150.379 23.9956 150.41 24.2841 150.41 24.5492H150.457C150.457 24.2841 150.48 23.9956 150.527 23.6837C150.574 23.3719 150.652 23.0912 150.761 22.8417L153.591 16.082Z" fill="#0A0B1A"/>
<path d="M132.859 23.8004C132.937 24.4397 133.256 24.8997 133.818 25.1804C134.395 25.4455 135.166 25.578 136.133 25.578C137.131 25.578 137.895 25.4455 138.425 25.1804C138.956 24.8997 139.221 24.4943 139.221 23.9641C139.221 23.6678 138.987 23.4651 138.519 23.356C138.067 23.2312 137.49 23.1299 136.788 23.0519C136.086 22.9739 135.322 22.896 134.496 22.818C133.685 22.74 132.929 22.5919 132.227 22.3736C131.541 22.1397 130.964 21.8122 130.496 21.3912C130.028 20.9546 129.794 20.362 129.794 19.6136C129.794 19.0522 129.911 18.5766 130.145 18.1868C130.395 17.7814 130.707 17.4461 131.081 17.181C131.455 16.9003 131.876 16.6742 132.344 16.5027C132.827 16.3312 133.303 16.2064 133.771 16.1285C134.254 16.0505 134.706 15.9959 135.127 15.9647C135.548 15.9336 135.891 15.918 136.157 15.918C136.78 15.918 137.435 15.9803 138.121 16.1051C138.823 16.2298 139.47 16.4325 140.063 16.7132C140.655 16.9939 141.154 17.3603 141.56 17.8125C141.981 18.2648 142.207 18.8105 142.238 19.4498L139.291 19.7773C139.213 19.2315 138.909 18.8495 138.379 18.6312C137.848 18.3973 137.084 18.2803 136.086 18.2803C135.135 18.2803 134.402 18.3817 133.888 18.5844C133.389 18.7871 133.139 19.177 133.139 19.7539C133.139 20.0502 133.373 20.2607 133.841 20.3854C134.309 20.4946 134.886 20.5882 135.572 20.6661C136.273 20.7285 137.03 20.7987 137.841 20.8766C138.667 20.9546 139.431 21.1105 140.133 21.3444C140.835 21.5627 141.411 21.8824 141.864 22.3034C142.331 22.7088 142.565 23.2858 142.565 24.0343C142.565 24.6268 142.441 25.1414 142.191 25.578C141.957 25.999 141.645 26.3499 141.256 26.6305C140.866 26.9112 140.421 27.1373 139.922 27.3088C139.439 27.4804 138.956 27.6129 138.472 27.7065C137.989 27.8 137.529 27.8546 137.092 27.8702C136.656 27.9014 136.297 27.917 136.016 27.917C135.767 27.917 135.431 27.8936 135.01 27.8468C134.605 27.8156 134.168 27.7533 133.701 27.6597C133.233 27.5661 132.757 27.4336 132.274 27.2621C131.806 27.0905 131.369 26.8722 130.964 26.6072C130.574 26.3265 130.254 25.9912 130.005 25.6014C129.756 25.196 129.615 24.7282 129.584 24.198L132.859 23.8004Z" fill="#0A0B1A"/>
<path d="M123.675 16.0823H128.493L122.832 20.6667L128.844 27.7538H127.487V27.7772L127.464 27.7538H124.61L120.306 22.6314L118.271 24.2921V27.7772H114.903V11.4043H118.271L118.201 19.7077C118.201 19.9728 118.155 20.2613 118.061 20.5731C117.983 20.8694 117.889 21.1345 117.78 21.3684L117.827 21.3918C117.936 21.1579 118.084 20.9162 118.271 20.6667C118.459 20.4172 118.661 20.2067 118.88 20.0352L123.675 16.0823Z" fill="#0A0B1A"/>
<path d="M112.805 18.7953H109.109C108.782 18.7953 108.517 18.8186 108.314 18.8654C108.111 18.9122 107.947 19.0058 107.823 19.1461C107.714 19.2709 107.636 19.458 107.589 19.7075C107.558 19.957 107.542 20.2844 107.542 20.6898V27.777H104.197V19.4268C104.197 18.8498 104.26 18.3586 104.384 17.9532C104.509 17.5322 104.704 17.1814 104.969 16.9007C105.234 16.62 105.577 16.4173 105.998 16.2925C106.435 16.1522 106.949 16.082 107.542 16.082H112.805V18.7953Z" fill="#0A0B1A"/>
<path d="M102.096 21.9292C102.096 22.9428 101.901 23.8238 101.511 24.5723C101.121 25.3208 100.599 25.9445 99.9439 26.4435C99.3046 26.9425 98.5484 27.3167 97.6751 27.5662C96.8175 27.8001 95.9053 27.917 94.9385 27.917C93.9717 27.917 93.0517 27.8001 92.1785 27.5662C91.3209 27.3167 90.5646 26.9425 89.9097 26.4435C89.2548 25.9445 88.7324 25.3208 88.3426 24.5723C87.9527 23.8238 87.7578 22.9428 87.7578 21.9292C87.7578 20.9157 87.9527 20.0346 88.3426 19.2862C88.7324 18.5377 89.2548 17.914 89.9097 17.415C90.5646 16.916 91.3209 16.5495 92.1785 16.3156C93.0517 16.0662 93.9717 15.9414 94.9385 15.9414C95.9053 15.9414 96.8175 16.0662 97.6751 16.3156C98.5484 16.5651 99.3046 16.9394 99.9439 17.4384C100.599 17.9218 101.121 18.5377 101.511 19.2862C101.901 20.0346 102.096 20.9157 102.096 21.9292ZM98.7511 21.9292C98.7511 21.399 98.6497 20.9313 98.447 20.5258C98.2443 20.1204 97.9636 19.7774 97.605 19.4967C97.2619 19.2004 96.8565 18.9821 96.3887 18.8418C95.9209 18.6858 95.4375 18.6079 94.9385 18.6079C94.4395 18.6079 93.9561 18.6858 93.4883 18.8418C93.0361 18.9821 92.6307 19.1926 92.2721 19.4733C91.9134 19.754 91.6249 20.1048 91.4066 20.5258C91.2039 20.9468 91.1026 21.4146 91.1026 21.9292C91.1026 22.4594 91.1961 22.935 91.3832 23.356C91.586 23.777 91.8588 24.1279 92.2019 24.4085C92.5605 24.6736 92.9738 24.8763 93.4416 25.0167C93.9094 25.157 94.4083 25.2272 94.9385 25.2272C95.4531 25.2272 95.9365 25.157 96.3887 25.0167C96.8565 24.8763 97.2619 24.6658 97.605 24.3852C97.9636 24.1045 98.2443 23.7614 98.447 23.356C98.6497 22.935 98.7511 22.4594 98.7511 21.9292Z" fill="#0A0B1A"/>
<path d="M83.488 16.082H87.0433L83.0202 27.777H77.7107L75.325 19.5671C75.2626 19.3176 75.208 19.037 75.1612 18.7251C75.13 18.3976 75.1144 18.1014 75.1144 17.8363H75.0677C75.0677 18.1014 75.0521 18.3976 75.0209 18.7251C74.9897 19.037 74.9351 19.3176 74.8572 19.5671L72.5883 27.777H67.2087L63.209 16.082H66.7876L69.5944 24.4556C69.6724 24.6739 69.727 24.9156 69.7582 25.1807C69.8049 25.4458 69.8283 25.6953 69.8283 25.9292H69.8751C69.8751 25.6953 69.8829 25.4458 69.8985 25.1807C69.9297 24.9 69.9765 24.6505 70.0388 24.4322L72.3544 16.082H77.7809L80.2134 24.479C80.2758 24.6973 80.3148 24.9156 80.3304 25.1339C80.346 25.3366 80.3538 25.516 80.3538 25.6719C80.3538 25.7654 80.3538 25.859 80.3538 25.9526H80.4006C80.4162 25.7187 80.4395 25.4692 80.4707 25.2041C80.5175 24.939 80.5799 24.6973 80.6578 24.479L83.488 16.082Z" fill="#0A0B1A"/>
<defs>
<linearGradient id="paint0_linear_27_39826" x1="16.7661" y1="-0.507427" x2="38.1201" y2="53.4528" gradientUnits="userSpaceOnUse">
<stop stop-color="#FF9A6E"/>
<stop offset="1" stop-color="#FF524D"/>
</linearGradient>
<linearGradient id="paint1_linear_27_39826" x1="16.7661" y1="-0.507427" x2="38.1201" y2="53.4528" gradientUnits="userSpaceOnUse">
<stop stop-color="#FF9A6E"/>
<stop offset="1" stop-color="#FF524D"/>
</linearGradient>
</defs>
</svg>
